<?xml version="1.0" encoding="UTF-8"?>
<svg version="1.1" xmlns="http://www.w3.org/2000/svg" width="512" height="512">
<path d="M0 0 C168.96 0 337.92 0 512 0 C512 168.96 512 337.92 512 512 C343.04 512 174.08 512 0 512 C0 343.04 0 174.08 0 0 Z " fill="#2195F2" transform="translate(0,0)"/>
<path d="M0 0 C2.31 1.98 4.62 3.96 7 6 C8.97840397 7.43776747 10.98029777 8.84379317 13.00486755 10.21578979 C14.17135495 11.01617395 15.33695756 11.81784869 16.50180817 12.6206131 C17.11423276 13.04236848 17.72665735 13.46412386 18.35764027 13.89865971 C38.32450396 27.73343003 57.12380244 42.93088989 75.4375 58.875 C76.24123173 59.57177731 77.04496346 60.26855461 77.87305069 60.98644638 C119.82145916 97.49682136 147.17495752 134.94439008 151.22483186 191.38873883 C153.05377384 219.09685828 152.64736662 246.77570165 151.5 274.5 C151.44195929 275.93841436 151.38397136 277.37683084 151.32603598 278.81524944 C149.81112197 315.98510569 147.02231204 353.01351883 143 390 C116.76836178 392.54263946 90.52489029 394.23562521 64.1875 395.1875 C62.74204213 395.24107391 62.74204213 395.24107391 61.2673831 395.29573011 C-25.21217885 398.40771544 -25.21217885 398.40771544 -59.05950433 367.60621661 C-65.36466584 361.72802129 -71.09415361 355.36912175 -76.6875 348.8125 C-77.52601627 347.83017269 -78.36453255 346.84784538 -79.2284584 345.83575058 C-88.11109806 335.30056451 -96.44613876 324.43421631 -103.97802448 312.88946819 C-107.36792481 307.71527734 -110.78529756 303.4764683 -116 300 C-116 299.34 -116 298.68 -116 298 C-116.66 298 -117.32 298 -118 298 C-118 297.34 -118 296.68 -118 296 C-118.99 295.67 -119.98 295.34 -121 295 C-121 294.34 -121 293.68 -121 293 C-121.56170898 292.7628125 -122.12341797 292.525625 -122.70214844 292.28125 C-125.52582658 290.70680643 -127.47614842 288.78315455 -129.765625 286.5 C-130.65507812 285.613125 -131.54453125 284.72625 -132.4609375 283.8125 C-133.38132813 282.884375 -134.30171875 281.95625 -135.25 281 C-136.18585938 280.071875 -137.12171875 279.14375 -138.0859375 278.1875 C-138.97023437 277.300625 -139.85453125 276.41375 -140.765625 275.5 C-141.57805664 274.6853125 -142.39048828 273.870625 -143.22753906 273.03125 C-145 271 -145 271 -145 269 C-123.88 269 -102.76 269 -81 269 C-81 196.73 -81 124.46 -81 50 C-54.27 50 -27.54 50 0 50 C0 33.5 0 17 0 0 Z " fill="#1C82D3" transform="translate(369,122)"/>
<path d="M0 0 C74.58 0 149.16 0 226 0 C226 16.83 226 33.66 226 51 C199.27 51 172.54 51 145 51 C145 123.27 145 195.54 145 270 C123.55 270 102.1 270 80 270 C80 197.4 80 124.8 80 50 C53.6 50 27.2 50 0 50 C0 33.5 0 17 0 0 Z " fill="#FDFEFE" transform="translate(143,121)"/>
<path d="M0 0 C0.33 0 0.66 0 1 0 C1 10.23 1 20.46 1 31 C-9.23 31 -19.46 31 -30 31 C-27.12594215 29.08396144 -24.30114921 27.67186862 -21.1875 26.1875 C-9.97244349 20.59348386 -4.71543966 13.95482872 -0.69921875 2.16015625 C-0.46847656 1.44730469 -0.23773438 0.73445313 0 0 Z " fill="#000000" transform="translate(511,481)"/>
<path d="M0 0 C1.04954459 2.09908918 2.09329958 4.20181104 3.078125 6.33203125 C8.20333889 17.18040065 14.57433159 24.14600492 25.9375 28.3125 C27.62133891 28.88586641 29.30766749 29.45221064 31 30 C31 30.33 31 30.66 31 31 C20.77 31 10.54 31 0 31 C0 20.77 0 10.54 0 0 Z " fill="#000000" transform="translate(0,481)"/>
<path d="M0 0 C10.23 0 20.46 0 31 0 C28.90091082 1.04954459 26.79818896 2.09329958 24.66796875 3.078125 C13.81959935 8.20333889 6.85399508 14.57433159 2.6875 25.9375 C2.11413359 27.62133891 1.54778936 29.30766749 1 31 C0.67 31 0.34 31 0 31 C0 20.77 0 10.54 0 0 Z " fill="#000000" transform="translate(0,0)"/>
<path d="M0 0 C10.23 0 20.46 0 31 0 C31 10.23 31 20.46 31 31 C29.95045541 28.90091082 28.90670042 26.79818896 27.921875 24.66796875 C22.79666111 13.81959935 16.42566841 6.85399508 5.0625 2.6875 C3.37866109 2.11413359 1.69233251 1.54778936 0 1 C0 0.67 0 0.34 0 0 Z " fill="#000000" transform="translate(481,0)"/>
</svg>
